Coordinates
version=1
nRows=43
nColumns=12
inDegrees=yes

Units are S.I. units (second, meters, Newtons, ...)
Angles are in degrees

endheader
time	SC_y	SC_z	SC_x	AC_y	AC_z	AC_x	GH_y	GH_z	GH_yy	EL_x	PS_y
       0.0              -20.04          17.93          84.01          47.42         -18.42          12.04          47.61          34.65          124.2          10.01          19.04
   0.04696              -20.04          17.94           84.0          47.42         -18.41          12.04          47.62          34.65          124.2          10.01          19.05
   0.09392              -20.04          17.94           84.0          47.43         -18.41          12.03          47.62          34.65          124.2          10.02          19.07
    0.1409              -20.05          17.94          83.99          47.43         -18.41          12.03          47.62          34.65          124.2          10.02          19.08
    0.1878              -20.05          17.95          83.99          47.43          -18.4          12.02          47.63          34.65          124.2          10.03           19.1
    0.2348              -20.06          17.95          83.98          47.43          -18.4          12.02          47.63          34.65          124.2          10.03          19.11
    0.2818              -20.06          17.95          83.98          47.43         -18.39          12.01          47.64          34.64          124.3          10.04          19.13
    0.3287              -20.07          17.96          83.97          47.43         -18.39           12.0          47.65          34.64          124.3          10.05          19.15
    0.3757              -20.07          17.96          83.97          47.43         -18.38           12.0          47.65          34.64          124.3          10.05          19.17
    0.4226              -20.08          17.96          83.96          47.43         -18.37          11.99          47.66          34.64          124.3          10.06          19.19
    0.4696              -20.08          17.97          83.95          47.43         -18.37          11.98          47.67          34.64          124.3          10.07          19.21
    0.5165              -20.09          17.97          83.94          47.43         -18.36          11.97          47.67          34.63          124.3          10.08          19.23
    0.5635               -20.1          17.98          83.93          47.43         -18.35          11.96          47.68          34.63          124.3          10.09          19.26
    0.6105               -20.1          17.99          83.92          47.43         -18.34          11.95          47.69          34.63          124.3           10.1          19.29
    0.6574              -20.11          17.99          83.91          47.43         -18.33          11.94           47.7          34.63          124.4          10.11          19.32
    0.7044              -20.12           18.0           83.9          47.44         -18.32          11.93          47.71          34.62          124.4          10.12          19.35
    0.7513              -20.13          18.01          83.89          47.44         -18.31          11.92          47.72          34.62          124.4          10.13          19.39
    0.7983              -20.14          18.02          83.88          47.44          -18.3           11.9          47.73          34.62          124.4          10.15          19.43
    0.8453              -20.15          18.02          83.86          47.44         -18.29          11.89          47.75          34.61          124.4          10.16          19.47
    0.8922              -20.17          18.03          83.85          47.44         -18.27          11.87          47.76          34.61          124.4          10.18          19.52
    0.9392              -20.18          18.04          83.83          47.44         -18.25          11.85          47.78           34.6          124.5           10.2          19.57
    0.9861               -20.2          18.06          83.81          47.45         -18.24          11.83           47.8           34.6          124.5          10.22          19.62
     1.033              -20.21          18.07          83.79          47.45         -18.22           11.8          47.82          34.59          124.5          10.24          19.69
      1.08              -20.23          18.08          83.77          47.45          -18.2          11.78          47.84          34.59          124.6          10.26          19.75
     1.127              -20.25           18.1          83.74          47.45         -18.17          11.75          47.86          34.58          124.6          10.29          19.83
     1.174              -20.28          18.12          83.72          47.46         -18.15          11.72          47.89          34.57          124.6          10.32          19.92
     1.221               -20.3          18.14          83.68          47.46         -18.12          11.68          47.92          34.56          124.7          10.36          20.01
     1.268              -20.33          18.16          83.65          47.46         -18.08          11.64          47.96          34.55          124.7          10.39          20.12
     1.315              -20.37          18.19          83.61          47.47         -18.04           11.6           48.0          34.54          124.8          10.44          20.24
     1.362               -20.4          18.22          83.56          47.47          -18.0          11.55          48.04          34.53          124.9          10.49          20.38
     1.409              -20.45          18.25          83.51          47.48         -17.95          11.49          48.09          34.51          124.9          10.54          20.54
     1.456               -20.5          18.29          83.45          47.48          -17.9          11.42          48.15          34.49          125.0          10.61          20.72
     1.503              -20.55          18.33          83.38          47.49         -17.83          11.34          48.22          34.47          125.1          10.68          20.93
      1.55              -20.62          18.38           83.3           47.5         -17.75          11.25          48.29          34.45          125.3          10.77          21.17
     1.597               -20.7          18.44           83.2          47.51         -17.67          11.15          48.38          34.42          125.4          10.87          21.46
     1.644              -20.79          18.52          83.09          47.52         -17.56          11.02          48.49          34.39          125.6          10.99           21.8
     1.691               -20.9           18.6          82.96          47.54         -17.44          10.87          48.62          34.36          125.7          11.14          22.19
     1.737              -21.03           18.7           82.8          47.56         -17.29           10.7          48.77          34.31          126.0          11.31          22.67
     1.784              -21.19          18.82          82.61          47.58         -17.11          10.48          48.96          34.26          126.3          11.51          23.25
     1.831              -21.38          18.97          82.38           47.6         -16.89          10.22          49.18          34.19          126.6          11.77          23.96
     1.878              -21.62          19.16          82.09          47.63         -16.62          9.896          49.46          34.11          127.0          12.08          24.83
     1.925              -21.92          19.39          81.73          47.67         -16.28          9.492          49.81          34.01          127.6          12.47          25.92
     1.972               -22.3          19.68          81.27          47.72         -15.85          8.983          50.25          33.88          128.2          12.96          27.29
